<?xml version="1.0" standalone="no"?>
<!DOCTYPE svg PUBLIC "-//W3C//DTD SVG 20010904//EN"
 "http://www.w3.org/TR/2001/REC-SVG-20010904/DTD/svg10.dtd">
<svg version="1.0" xmlns="http://www.w3.org/2000/svg"
 width="1920.000000pt" height="1920.000000pt" viewBox="0 0 1920.000000 1920.000000"
 preserveAspectRatio="xMidYMid meet">
<metadata>
Created by potrace 1.11, written by Peter Selinger 2001-2013
</metadata>
<g transform="translate(0.000000,1920.000000) scale(0.100000,-0.100000)"
fill="#000000" stroke="none">
<path d="M12258 19183 c-21 -25 -41 -122 -46 -220 -3 -71 -1 -83 12 -83 9 0
16 -5 16 -11 0 -16 -56 -69 -74 -69 -9 0 -16 -4 -16 -10 0 -5 18 -10 41 -10
35 0 46 6 89 50 40 41 55 50 84 50 19 0 36 -5 38 -12 3 -9 6 -9 12 0 4 7 2 12
-3 12 -6 0 -11 9 -11 20 0 11 5 20 10 20 6 0 10 9 10 20 0 11 5 20 10 20 6 0
10 7 10 16 0 15 23 44 34 44 3 0 6 -13 6 -30 0 -20 5 -30 15 -30 11 0 15 11
15 40 0 36 3 40 25 40 20 0 25 5 25 25 0 22 4 25 39 25 30 0 40 -4 43 -17 3
-15 8 -13 33 12 l30 30 -32 3 c-48 5 -40 19 12 24 31 2 45 -1 45 -9 0 -7 7
-13 15 -13 8 0 15 8 15 18 0 9 3 27 6 40 l6 22 -249 0 c-226 0 -251 -2 -265
-17z"/>
<path d="M12784 19178 c3 -13 6 -28 6 -33 0 -6 19 -9 45 -7 36 3 45 8 45 23 0
10 5 19 10 19 6 0 10 5 10 10 0 6 -27 10 -61 10 -59 0 -61 -1 -55 -22z"/>
<path d="M12960 19184 c0 -14 3 -14 15 -4 8 7 15 14 15 16 0 2 -7 4 -15 4 -8
0 -15 -7 -15 -16z"/>
<path d="M12380 18790 c0 -5 5 -10 10 -10 6 0 10 5 10 10 0 6 -4 10 -10 10 -5
0 -10 -4 -10 -10z"/>
<path d="M11585 18670 c13 -6 -9 -8 -62 -6 -46 1 -83 -1 -83 -4 0 -4 -13 -7
-29 -7 -39 0 -159 -60 -178 -90 -8 -12 -20 -23 -25 -23 -15 0 -63 -52 -81 -86
-9 -17 -26 -60 -39 -95 -42 -121 -25 -328 33 -382 10 -10 19 -25 19 -34 0 -19
106 -123 125 -123 7 0 26 -11 42 -24 16 -14 41 -28 56 -31 15 -4 30 -11 33
-16 3 -5 20 -9 39 -9 20 0 38 -6 42 -15 8 -13 17 -13 78 6 69 20 104 33 137
50 10 5 24 9 32 9 8 0 16 7 20 15 3 8 12 15 21 15 8 0 15 4 15 10 0 5 14 17
31 26 25 12 29 18 18 25 -8 5 -11 9 -6 10 4 1 11 2 15 3 11 1 82 79 82 89 0 5
-11 -5 -25 -21 -49 -59 -185 -112 -285 -112 -363 0 -538 452 -268 695 71 64
72 63 148 -35 19 -24 41 -51 48 -58 6 -7 12 -17 12 -21 0 -4 11 -13 24 -20 22
-12 27 -10 68 33 41 42 49 46 92 46 41 0 52 -5 77 -31 54 -58 31 -157 -44
-193 -20 -9 -39 -21 -42 -26 -10 -16 14 -49 107 -146 l91 -94 20 23 c24 27 57
101 57 128 0 10 4 19 9 19 5 0 7 35 5 78 -2 56 -1 73 7 62 10 -13 10 -13 6 0
-3 8 -12 31 -20 50 -8 19 -13 45 -12 57 1 12 -2 20 -7 17 -12 -8 -10 10 3 23
8 8 8 16 0 30 -8 12 -11 13 -9 3 3 -15 -2 -20 -22 -20 -7 0 -7 7 0 21 14 25
10 29 -22 32 -32 3 -112 72 -102 88 4 7 3 10 -3 6 -11 -7 -131 29 -147 44 -6
5 -17 9 -25 8 -11 0 -10 -3 4 -9 18 -8 17 -9 -8 -9 -16 -1 -35 6 -43 14 -9 8
-23 15 -32 14 -14 0 -13 -2 3 -9z m365 -170 c0 -5 -2 -10 -4 -10 -3 0 -8 5
-11 10 -3 6 -1 10 4 10 6 0 11 -4 11 -10z"/>
<path d="M11905 18550 c-3 -5 1 -10 10 -10 9 0 13 5 10 10 -3 6 -8 10 -10 10
-2 0 -7 -4 -10 -10z"/>
<path d="M5790 18384 c-93 -21 -260 -126 -260 -164 0 -5 -7 -10 -15 -10 -8 0
-20 -10 -26 -22 -6 -12 -16 -27 -21 -32 -25 -30 -67 -104 -73 -128 -4 -16 -11
-28 -15 -28 -36 0 -57 -279 -25 -340 8 -16 12 -36 9 -44 -3 -9 -1 -16 5 -16 6
0 11 -11 11 -25 0 -30 36 -105 50 -105 6 0 10 -5 10 -11 0 -14 83 -99 96 -99
5 0 15 -9 22 -20 7 -11 18 -20 26 -20 8 0 16 -6 19 -14 3 -8 21 -17 39 -21 18
-4 40 -13 48 -20 8 -7 26 -16 40 -20 14 -4 28 -13 32 -19 5 -7 58 -11 155 -11
139 0 149 1 170 22 21 21 78 42 118 44 l20 0 -20 9 c-16 7 -13 9 22 15 24 4
40 11 37 16 -3 5 2 9 11 9 9 0 24 8 33 17 16 16 16 16 -3 9 -11 -4 -32 -10
-47 -13 -15 -3 -26 -8 -24 -12 2 -3 -35 -7 -83 -9 -237 -8 -434 107 -533 313
-40 84 -42 93 -46 200 -3 86 0 125 13 171 37 128 120 241 220 299 l45 27 23
-28 c12 -16 63 -71 112 -122 l90 -94 51 41 c59 47 94 62 145 63 82 1 149 -64
151 -147 1 -58 -17 -101 -64 -150 -21 -22 -38 -45 -38 -52 0 -10 38 -55 137
-161 7 -7 16 -18 20 -25 5 -7 24 -27 44 -45 l36 -33 26 49 c73 135 77 307 11
459 -61 140 -193 253 -345 297 -69 19 -372 20 -459 0z"/>
<path d="M12010 18370 c0 -5 5 -10 11 -10 5 0 7 5 4 10 -3 6 -8 10 -11 10 -2
0 -4 -4 -4 -10z"/>
<path d="M3082 18333 c-23 -2 -40 -8 -37 -13 3 -6 -1 -7 -9 -4 -9 3 -37 -4
-62 -17 -51 -24 -154 -114 -154 -134 0 -7 -6 -18 -14 -24 -49 -41 -77 -252
-42 -319 9 -17 16 -36 16 -41 0 -6 12 -27 26 -48 14 -21 30 -48 35 -60 5 -13
15 -23 24 -23 8 0 15 -9 15 -19 0 -12 9 -21 26 -25 14 -4 31 -11 37 -17 50
-42 65 -51 100 -61 29 -9 43 -9 57 0 10 6 20 7 22 2 4 -10 77 -15 98 -7 8 4
42 12 75 19 49 11 61 17 63 35 3 21 27 33 69 33 13 0 24 8 28 20 3 11 15 20
26 20 10 0 19 7 19 15 0 8 -8 15 -17 15 -13 0 -11 6 10 28 35 37 35 53 0 19
-53 -50 -119 -72 -218 -72 -76 0 -98 4 -145 26 -80 37 -125 81 -162 157 -30
61 -33 75 -32 157 0 70 5 101 21 137 27 57 83 122 123 138 33 14 29 17 100
-70 68 -83 69 -83 111 -45 47 43 89 52 128 29 72 -42 65 -135 -13 -184 -32
-19 -34 -23 -24 -46 6 -13 16 -24 22 -24 7 0 19 -12 28 -27 9 -16 35 -48 57
-72 23 -24 41 -48 41 -53 0 -24 19 0 48 62 27 59 32 81 32 145 0 143 -64 250
-187 310 -67 33 -78 36 -185 39 -62 2 -132 1 -156 -1z m358 -703 c0 -5 -5 -10
-11 -10 -5 0 -7 5 -4 10 3 6 8 10 11 10 2 0 4 -4 4 -10z"/>
<path d="M16450 18220 c12 -11 27 -17 33 -13 5 3 7 2 4 -4 -8 -12 31 -46 43
-38 6 4 10 -1 10 -9 0 -9 7 -16 16 -16 8 0 13 -4 10 -8 -7 -12 24 -53 35 -46
5 3 8 2 7 -3 -2 -4 7 -18 20 -30 24 -25 27 -19 13 20 -21 55 -138 161 -166
151 -7 -3 -16 -1 -20 5 -3 6 -11 11 -17 11 -6 0 -1 -9 12 -20z m150 -110 c0
-5 -2 -10 -4 -10 -3 0 -8 5 -11 10 -3 6 -1 10 4 10 6 0 11 -4 11 -10z"/>
<path d="M16061 17884 c0 -11 3 -14 6 -6 3 7 2 16 -1 19 -3 4 -6 -2 -5 -13z"/>
<path d="M4560 17325 c0 -11 -12 -15 -42 -16 -35 -2 -37 -3 -13 -6 16 -3 33
-10 37 -16 5 -8 10 -8 20 0 7 6 28 14 46 18 37 8 42 20 10 29 -38 10 -58 7
-58 -9z"/>
<path d="M6238 17293 c7 -3 16 -2 19 1 4 3 -2 6 -13 5 -11 0 -14 -3 -6 -6z"/>
<path d="M4076 17207 c-39 -40 -71 -66 -74 -59 -7 21 -42 14 -42 -8 0 -11 -4
-20 -10 -20 -5 0 -10 -7 -10 -15 0 -25 -46 -65 -75 -65 -18 0 -25 5 -25 20 0
12 -7 20 -16 20 -9 0 -18 -9 -21 -20 -3 -11 -14 -20 -24 -20 -11 0 -19 -7 -19
-15 0 -10 -10 -15 -32 -14 -21 1 -26 3 -14 6 33 8 46 30 44 70 -1 37 -1 37 -5
6 -4 -29 -8 -33 -33 -33 -25 0 -29 4 -33 33 -2 17 -5 2 -5 -35 -2 -59 -5 -68
-20 -68 -11 0 -24 -11 -30 -25 -17 -36 -30 -31 -34 13 l-3 37 -26 -27 c-16
-17 -37 -28 -53 -28 -14 0 -26 -4 -26 -9 0 -12 -29 -41 -41 -41 -5 0 -9 11 -9
25 0 16 -6 25 -15 25 -8 0 -15 -6 -15 -14 0 -8 -11 -17 -25 -20 -24 -6 -37
-46 -15 -46 6 0 10 -7 10 -15 0 -11 -12 -15 -46 -15 -35 0 -50 -5 -65 -22 -22
-28 -24 -38 -4 -38 8 0 15 -7 15 -15 0 -8 -9 -15 -20 -15 -11 0 -20 5 -20 10
0 6 -9 10 -20 10 -11 0 -20 -4 -20 -10 0 -5 7 -10 15 -10 8 0 15 -4 15 -10 0
-5 -6 -10 -14 -10 -8 0 -17 -6 -19 -12 -3 -7 -6 3 -6 23 -1 42 -19 99 -31 99
-14 0 -24 -44 -11 -48 6 -2 11 -21 11 -43 0 -32 -3 -39 -20 -39 -11 0 -20 -5
-20 -10 0 -6 -7 -6 -19 1 -37 24 -76 -15 -52 -52 6 -11 7 -19 3 -19 -5 0 -15
11 -22 25 -7 14 -17 25 -22 25 -5 0 -13 -11 -18 -25 -5 -14 -14 -25 -20 -25
-5 0 -10 -18 -10 -40 0 -22 -4 -40 -10 -40 -5 0 -10 18 -10 40 0 29 -4 40 -15
40 -18 0 -22 -76 -4 -82 16 -5 0 -34 -27 -47 -14 -6 -38 -11 -55 -11 -22 0
-41 -12 -74 -45 -25 -24 -45 -47 -45 -50 0 -3 11 -5 25 -5 18 0 23 -4 18 -16
-3 -9 -13 -14 -24 -11 -15 4 -19 -1 -19 -24 0 -31 -26 -41 -36 -14 -7 17 -44
21 -44 5 0 -14 -86 -100 -100 -100 -15 0 -12 -33 6 -58 14 -21 14 -22 -10 -22
-18 0 -26 5 -26 18 0 10 -7 27 -15 38 -13 18 -14 17 -15 -18 0 -27 -4 -38 -15
-38 -8 0 -15 -6 -15 -14 0 -8 -11 -17 -25 -20 -14 -4 -25 -11 -25 -16 0 -6
-18 -10 -40 -10 -42 0 -56 -16 -19 -22 21 -3 21 -4 -4 -30 -19 -21 -36 -28
-62 -28 -32 0 -35 -2 -35 -30 0 -21 -5 -30 -16 -30 -9 0 -18 -9 -21 -20 -4
-13 -14 -20 -30 -20 -17 0 -45 -21 -93 -70 -38 -38 -76 -70 -85 -70 -8 0 -15
-4 -15 -10 0 -5 -9 -10 -20 -10 -11 0 -20 -4 -20 -10 0 -5 -9 -10 -20 -10 -15
0 -20 -7 -20 -28 0 -27 -10 -36 -72 -62 -16 -7 -28 -16 -28 -21 0 -5 -9 -9
-20 -9 -11 0 -20 -7 -20 -15 0 -26 -66 -85 -95 -85 -20 0 -25 -5 -25 -26 0
-24 -3 -26 -30 -20 -17 3 -30 1 -30 -4 0 -6 -9 -10 -19 -10 -11 0 -22 -6 -24
-12 -4 -10 -8 -9 -17 2 -9 12 -10 11 -5 -7 6 -21 3 -23 -34 -23 -23 0 -41 5
-41 10 0 6 5 10 10 10 6 0 10 9 10 19 0 11 -4 23 -10 26 -6 4 -10 -5 -10 -19
0 -23 -4 -26 -35 -26 -25 0 -44 -8 -60 -25 -29 -28 -33 -57 -7 -54 44 4 62 -1
62 -20 0 -10 -7 -22 -16 -25 -22 -8 -22 -8 -26 12 -3 14 -9 12 -35 -15 -17
-18 -41 -33 -53 -33 -12 0 -28 -7 -36 -15 -9 -8 -20 -15 -25 -15 -6 0 1 11 15
25 14 14 32 25 41 25 8 0 15 5 15 10 0 6 9 10 20 10 13 0 20 7 20 20 0 17 -7
20 -50 20 -43 0 -50 -3 -50 -19 0 -11 -9 -23 -20 -26 -11 -3 -20 -11 -20 -16
0 -25 -31 -39 -84 -39 -50 0 -56 -2 -56 -20 0 -17 -3 -19 -18 -11 -22 12 -42
-3 -42 -31 0 -10 -4 -18 -9 -18 -5 0 -11 -8 -14 -17 -3 -14 -6 -11 -11 9 -6
21 -16 29 -42 34 -19 3 -38 4 -41 0 -4 -3 3 -6 15 -6 23 0 26 -7 16 -34 -4
-11 -19 -16 -50 -16 -35 0 -44 -4 -44 -17 -1 -16 -2 -16 -16 2 -14 19 -16 19
-28 3 -7 -10 -23 -18 -36 -18 -12 0 -34 -12 -47 -27 -18 -18 -27 -23 -32 -14
-6 9 -17 8 -44 -5 -21 -10 -37 -21 -37 -26 0 -4 -13 -8 -29 -8 -16 0 -34 -7
-41 -15 -7 -8 -26 -15 -43 -15 -42 0 -97 -21 -97 -37 0 -7 -7 -13 -15 -13 -8
0 -15 7 -15 15 0 13 -7 15 -37 9 -21 -4 -40 -11 -41 -15 -2 -5 -14 -9 -27 -9
-12 0 -25 -7 -29 -15 -8 -21 -26 -19 -27 3 0 13 -3 12 -11 -5 -11 -23 -28 -31
-28 -13 0 18 -17 10 -28 -12 -6 -13 -11 -17 -11 -10 -1 7 -16 12 -41 12 l-40
0 0 -5180 0 -5180 20 0 c11 0 23 6 26 14 3 8 18 19 34 26 33 14 48 40 22 40
-10 0 48 65 143 160 150 150 162 160 197 160 l38 0 0 54 c0 46 3 54 21 59 11
3 23 15 26 26 3 12 10 21 17 21 6 0 30 10 54 22 34 18 42 28 39 44 -3 17 0 20
15 16 31 -8 68 37 68 85 0 33 4 43 20 48 11 3 20 11 20 16 0 14 38 11 43 -3 3
-10 9 -10 30 1 14 7 32 11 40 8 11 -4 13 0 9 15 -3 12 1 26 10 32 8 6 21 24
29 40 17 36 39 45 39 17 0 -12 6 -21 15 -21 8 0 15 -4 15 -10 0 -5 5 -10 10
-10 6 0 10 8 8 18 -2 12 5 18 25 20 15 2 27 -1 27 -7 0 -6 -4 -11 -10 -11 -5
0 -10 -4 -10 -10 0 -5 9 -10 21 -10 34 0 83 -28 104 -60 11 -16 27 -30 36 -30
8 0 25 -11 37 -23 16 -17 35 -24 65 -25 24 -1 66 -13 94 -27 29 -13 80 -29
115 -35 77 -12 248 -13 248 -1 0 5 21 8 48 7 26 -2 53 2 61 8 8 6 28 16 45 21
17 6 30 16 29 22 -2 7 7 10 23 7 15 -3 23 -1 20 5 -4 5 1 11 11 13 9 2 -53 3
-138 3 -135 0 -162 3 -217 23 -388 140 -526 610 -272 931 51 64 129 117 114
76 -4 -11 -2 -13 9 -10 8 4 17 -1 20 -9 4 -9 13 -16 21 -16 8 0 17 -8 20 -18
4 -10 29 -38 58 -62 28 -24 69 -62 92 -83 75 -71 115 -75 142 -15 24 53 48 80
99 107 50 27 97 27 151 0 58 -28 87 -75 86 -144 -1 -79 -25 -116 -137 -204
l-30 -23 25 -17 c14 -9 46 -37 72 -63 26 -27 51 -48 56 -48 4 0 19 -13 32 -30
14 -16 31 -29 39 -30 17 0 87 -61 83 -72 -6 -20 39 15 52 40 59 115 74 291 36
417 -12 39 -22 78 -23 87 -1 9 -5 14 -9 12 -4 -3 -8 1 -8 8 0 16 -45 85 -83
127 -15 17 -27 35 -27 41 0 5 -6 10 -13 10 -17 0 -47 36 -39 46 4 4 -2 4 -13
0 -11 -4 -16 -4 -13 0 11 10 -12 45 -24 38 -7 -5 -9 -2 -5 9 4 12 1 15 -11 11
-15 -5 -15 -4 1 9 18 15 18 15 -1 21 -11 4 -22 16 -25 26 -3 12 -14 20 -27 20
-11 0 -18 5 -15 10 3 6 15 10 26 10 10 0 19 -4 19 -10 0 -5 9 -10 20 -10 13 0
20 7 20 20 0 13 -7 20 -20 20 -17 0 -20 7 -20 40 0 36 2 40 26 40 35 0 54 22
54 62 0 43 15 58 57 58 28 0 43 10 88 58 l54 57 -30 3 c-30 3 -42 32 -14 32 8
0 15 7 15 15 0 18 26 20 34 3 5 -10 7 -10 12 0 3 6 12 12 20 12 19 0 64 45 64
64 0 8 6 17 13 20 10 5 10 7 0 12 -28 13 -3 64 31 64 11 0 16 -9 16 -30 0 -23
4 -30 20 -30 17 0 20 7 20 40 0 22 5 40 10 40 6 0 10 18 10 40 0 33 3 40 20
40 12 0 20 7 20 16 0 20 24 44 44 44 9 0 16 8 16 20 0 14 7 20 21 20 32 0 59
19 59 40 0 12 7 20 16 20 27 0 64 43 65 75 0 17 3 24 6 18 2 -7 16 -13 29 -13
17 0 24 6 24 20 0 11 5 20 10 20 6 0 10 9 10 20 0 11 7 20 15 20 24 0 67 50
62 72 -3 11 -3 17 1 14 3 -4 59 46 124 111 81 81 118 125 118 140 0 13 5 23
10 23 6 0 10 9 10 20 0 15 7 20 25 20 14 0 25 -5 25 -11 0 -6 8 -3 17 7 13 13
14 19 5 22 -12 4 -18 62 -6 62 4 0 20 -13 36 -30 32 -34 38 -36 38 -15 0 8 -7
15 -15 15 -8 0 -15 7 -15 15 0 8 7 15 15 15 10 0 15 10 15 30 0 46 21 131 31
124 5 -3 9 -18 9 -34 0 -45 19 -46 26 0 6 34 10 40 30 40 22 0 24 4 24 45 0
38 3 45 20 45 11 0 20 7 20 15 0 9 6 18 14 21 8 3 19 18 26 34 7 16 18 31 26
34 8 3 14 15 14 26 0 11 6 20 14 20 8 0 20 20 27 45 16 54 39 68 39 24 0 -18
4 -28 10 -24 6 4 10 15 8 25 -2 11 12 34 31 54 26 27 31 36 18 36 -20 0 -23
23 -4 38 12 10 18 12 36 12 5 0 14 13 21 29 7 18 24 34 41 40 19 7 33 21 40
40 6 16 17 32 25 35 9 3 14 20 14 46 l0 40 41 0 41 0 -4 63 c-3 58 -1 63 15
59 10 -3 27 4 38 17 11 11 24 21 29 21 15 0 51 43 62 73 10 27 33 37 40 17 4
-12 58 10 58 23 0 4 5 7 11 7 14 0 69 55 69 69 0 6 5 11 11 11 14 0 69 55 69
69 0 6 -4 11 -10 11 -20 0 -9 15 22 30 18 9 40 33 54 58 12 24 29 51 36 60 8
9 22 35 32 57 16 35 19 37 26 20 7 -18 9 -16 29 17 12 20 28 39 36 42 18 7 20
33 3 38 -9 3 -9 6 0 12 7 4 12 2 12 -3 0 -6 7 -11 15 -11 11 0 15 11 15 38 0
33 4 39 41 57 48 23 79 58 55 63 -23 5 -8 29 32 53 28 17 33 24 20 27 -30 6
-20 28 22 47 25 11 40 25 40 36 0 10 9 23 20 29 11 6 27 25 37 43 9 18 18 26
20 20 10 -27 33 -13 33 20 0 52 11 78 37 88 13 5 32 24 43 42 11 19 31 39 45
45 13 6 31 24 39 40 8 16 22 32 30 35 8 3 20 31 27 61 13 57 29 75 29 32 0
-34 20 -44 21 -12 2 29 3 33 14 61 14 34 37 55 62 55 12 0 23 5 23 10 0 6 8
10 19 10 11 0 23 12 31 30 13 31 26 38 32 18 3 -9 6 -9 12 0 4 7 2 12 -3 12
-6 0 -11 11 -11 25 0 22 3 24 19 16 20 -11 31 -5 31 16 0 17 -24 43 -39 43
-10 0 6 48 20 60 3 3 8 13 12 23 3 9 13 17 22 17 8 0 15 9 15 20 0 18 7 20 60
20 l60 0 0 34 c0 18 5 47 11 65 11 32 29 42 29 16 0 -8 4 -15 10 -15 15 0 32
39 25 59 -7 23 22 54 43 46 8 -3 19 0 24 7 12 19 10 28 -7 28 -9 0 -15 9 -15
25 0 18 5 25 19 25 10 0 21 7 25 15 3 8 12 15 21 15 10 0 15 10 15 30 0 19 7
34 20 42 12 8 20 24 20 40 0 26 3 28 45 28 25 0 45 5 45 10 0 6 9 10 20 10 18
0 20 4 14 40 -6 36 -5 40 15 40 18 0 21 6 21 40 0 33 3 40 20 40 16 0 20 7 20
32 0 30 0 31 20 13 20 -18 20 -17 20 8 0 21 -5 27 -22 27 -20 0 -18 4 16 39
32 32 35 40 20 43 -17 3 -17 4 1 22 18 18 19 18 25 0 6 -16 9 -15 23 13 22 41
21 43 -5 43 -20 0 -18 5 20 43 23 23 42 49 42 57 0 17 43 60 59 60 6 0 14 7
17 15 3 8 14 17 23 20 24 7 41 47 41 95 0 21 5 42 10 45 6 3 10 22 10 42 0 26
8 42 30 63 26 24 30 35 30 78 0 28 5 54 10 57 6 3 10 19 10 36 0 27 2 29 40
29 23 0 40 5 40 11 0 7 12 23 27 36 18 18 23 27 14 32 -9 6 -8 17 5 44 10 21
21 37 26 37 4 0 8 18 8 40 l0 40 40 0 c38 0 40 2 40 30 0 28 -3 30 -36 30 -41
0 -73 25 -55 43 8 8 11 7 11 -6 0 -9 5 -17 10 -17 6 0 10 14 10 30 0 27 3 30
30 30 17 0 30 5 30 10 0 6 6 10 13 10 8 0 20 18 27 40 16 48 38 52 42 8 l3
-33 29 29 c22 21 26 30 16 36 -7 4 -10 15 -7 24 5 11 1 16 -12 16 -14 0 -18 5
-14 20 3 11 14 20 24 20 15 0 19 7 19 40 0 22 5 40 10 40 6 0 10 5 10 11 0 6
7 17 15 25 17 17 20 44 5 44 -5 0 -10 18 -10 40 0 22 5 40 10 40 6 0 10 16 10
36 0 49 19 64 79 64 62 0 67 15 9 25 l-43 8 45 12 c25 7 37 13 28 14 -24 1
-26 81 -3 81 12 0 15 15 15 76 0 83 11 104 54 104 21 0 26 5 26 26 0 17 -6 28
-20 31 -28 8 -25 26 4 21 21 -4 25 1 46 69 14 45 28 73 36 73 8 0 14 5 14 10
0 6 -5 10 -12 10 -9 0 -9 3 0 12 7 7 12 20 12 30 0 14 8 18 35 18 34 0 35 1
35 40 0 32 7 46 37 76 23 24 33 39 25 42 -10 3 -10 7 -1 18 15 18 29 18 29 -1
0 -19 20 -19 54 -1 l27 14 -27 6 c-16 4 -79 60 -155 137 -70 71 -135 129 -144
129 -8 0 -15 5 -15 10 0 6 -6 10 -13 10 -23 0 -48 36 -49 68 -1 25 -8 33 -40
48 -41 18 -69 44 -49 44 6 0 11 5 11 11 0 14 -55 69 -69 69 -6 0 -11 5 -11 11
0 16 -56 69 -74 69 -11 0 -18 13 -22 38 -4 25 -13 41 -27 48 -20 9 -31 23 -41
57 -4 12 -16 17 -41 17 -32 0 -35 2 -35 30 0 26 -4 30 -28 30 -16 0 -34 8 -42
20 -8 11 -19 20 -25 20 -6 0 -16 5 -23 12 -9 9 -8 16 5 30 10 11 11 18 5 18
-7 0 -12 7 -12 15 0 8 -9 20 -20 27 -11 7 -20 18 -20 25 0 7 -4 13 -10 13 -5
0 -10 7 -10 15 0 8 -5 26 -12 40 l-12 26 -18 -23 -18 -23 0 43 c0 27 -5 45
-14 48 -8 3 -19 18 -26 34 -7 16 -18 31 -26 34 -8 3 -14 15 -14 26 0 11 -6 20
-13 20 -8 0 -20 18 -27 40 -7 22 -19 40 -27 40 -7 0 -13 8 -13 18 0 10 -10 26
-22 36 -21 19 -21 20 -3 26 18 6 18 7 1 17 -11 6 -27 8 -37 6 -16 -4 -19 0
-19 28 0 26 -3 30 -12 21 -17 -17 -31 -15 -24 4 8 22 -15 84 -31 84 -7 0 -13
9 -13 20 0 11 -6 23 -14 26 -8 3 -19 18 -26 34 -7 16 -18 31 -26 34 -10 4 -15
25 -16 68 -1 49 -2 54 -5 21 -3 -29 -9 -43 -19 -43 -10 0 -14 13 -14 45 0 33
-4 47 -17 52 -21 8 -48 35 -63 62 -6 12 -16 21 -23 21 -7 0 -17 10 -22 23 -6
12 -20 26 -32 32 -13 5 -23 16 -23 23 0 20 -67 82 -90 82 -12 0 -33 12 -48 28
l-27 27 33 3 c17 2 32 7 32 12 0 15 -36 30 -69 30 -17 0 -31 5 -31 10 0 6 -13
10 -30 10 -16 0 -30 5 -30 10 0 6 12 10 26 10 21 0 24 4 19 20 -5 17 -2 20 24
20 30 0 31 1 31 48 l0 49 -50 2 -50 1 0 -40 c0 -25 -4 -39 -10 -35 -5 3 -10
26 -10 51 0 24 5 44 10 44 18 0 10 21 -19 51 -21 21 -39 29 -65 29 -26 0 -36
5 -41 20 -3 11 -11 20 -16 20 -5 0 -9 9 -9 20 0 16 7 20 35 20 34 0 35 1 35
40 0 39 -1 40 -35 40 -19 0 -35 -4 -35 -10 0 -5 -9 -10 -20 -10 -11 0 -20 5
-20 10 0 6 9 10 20 10 13 0 20 7 20 20 0 17 -7 20 -40 20 l-40 0 0 60 c0 67 5
64 -97 60 l-43 -2 0 41 c0 49 -17 55 -22 9 l-3 -33 -30 30 -30 29 25 7 c14 4
20 7 14 8 -7 1 -14 10 -17 21 -3 11 -12 20 -21 20 -9 0 -16 4 -16 10 0 5 -6 7
-14 4 -8 -3 -17 -1 -21 5 -3 6 -16 11 -28 12 -15 1 -8 5 18 13 50 16 51 38 3
49 -21 5 -38 12 -38 15 0 4 17 14 38 22 29 13 33 17 20 23 -10 3 -24 0 -32 -8
-8 -8 -24 -15 -36 -15 -16 0 -20 -4 -16 -16 7 -18 -15 -44 -38 -44 -11 0 -16
13 -18 48 l-3 47 -18 -36 c-22 -44 -62 -58 -71 -25 -3 12 -6 36 -6 54 0 29 -3
32 -30 32 -16 0 -30 5 -30 11 0 11 -28 9 -62 -6 -15 -6 -18 -2 -18 23 0 25 5
31 33 38 29 7 27 8 -25 12 l-58 3 0 39 c0 29 -4 40 -15 40 -11 0 -15 -11 -15
-40 0 -37 -13 -55 -22 -29 -2 7 -30 11 -71 11 l-67 -1 0 30 c0 19 -5 29 -15
29 -21 0 -65 -45 -65 -66 0 -15 -8 -16 -61 -10 -34 3 -71 6 -83 6 -16 0 -10 7
24 30 l45 30 -42 0 c-32 0 -43 -4 -43 -15 0 -11 -11 -15 -40 -15 -33 0 -40 3
-40 20 0 11 -3 20 -7 19 -5 0 -39 -33 -77 -72z m-980 -518 c10 -17 -13 -36
-27 -22 -12 12 -4 33 11 33 5 0 12 -5 16 -11z m44 -34 c0 -9 -9 -15 -21 -15
-18 0 -19 2 -9 15 7 8 16 15 21 15 5 0 9 -7 9 -15z m-180 -185 c0 -5 -7 -10
-15 -10 -8 0 -15 5 -15 10 0 6 7 10 15 10 8 0 15 -4 15 -10z m-130 -74 c0 -2
-7 -9 -15 -16 -12 -10 -15 -10 -15 4 0 9 7 16 15 16 8 0 15 -2 15 -4z m2090
-212 c74 -86 146 -167 159 -182 l24 -26 -31 -27 c-130 -116 -363 -11 -388 174
-9 61 17 144 57 185 17 17 34 32 38 31 3 0 67 -70 141 -155z m126 108 c46 -31
35 -103 -19 -122 -66 -23 -113 55 -63 105 25 24 60 32 82 17z m874 -388 c0
-14 -3 -14 -15 -4 -8 7 -15 14 -15 16 0 2 7 4 15 4 8 0 15 -7 15 -16z m80 -71
c0 -25 -1 -25 -18 -10 -10 10 -24 17 -30 17 -6 0 -14 5 -17 10 -4 6 8 10 29
10 32 0 36 -3 36 -27z m-4560 -453 c0 -13 -7 -20 -20 -20 -13 0 -20 7 -20 20
0 13 7 20 20 20 13 0 20 -7 20 -20z m3238 -952 c7 -7 12 -27 12 -45 0 -57 -71
-73 -99 -22 -13 24 -13 29 2 53 19 28 63 36 85 14z m-288 -52 c0 -3 9 -16 20
-28 11 -13 42 -48 68 -78 133 -152 164 -193 150 -201 -7 -5 -41 -9 -76 -9
-107 0 -180 48 -225 149 -23 53 -20 155 7 197 l17 25 20 -25 c10 -13 19 -27
19 -30z m2780 -96 c0 -5 -2 -10 -4 -10 -3 0 -8 5 -11 10 -3 6 -1 10 4 10 6 0
11 -4 11 -10z m-5533 -285 c28 -39 127 -169 133 -175 3 -3 10 -12 15 -21 6 -9
40 -61 76 -115 36 -55 73 -114 83 -131 9 -18 21 -33 26 -33 6 0 10 -5 10 -12
0 -6 8 -21 19 -32 10 -12 30 -42 45 -68 l27 -47 -23 -12 c-39 -22 -188 -24
-249 -4 -139 45 -245 153 -284 289 -35 119 -3 289 67 363 27 29 33 29 55 -2z
m475 -16 c27 -15 51 -74 43 -110 -9 -40 -58 -79 -102 -79 -51 0 -93 45 -93
100 0 77 83 126 152 89z m4848 -959 c0 -11 -4 -20 -9 -20 -5 0 -11 9 -14 20
-3 13 0 20 9 20 8 0 14 -9 14 -20z m-80 -130 c0 -5 -11 -10 -25 -10 -14 0 -25
5 -25 10 0 6 11 10 25 10 14 0 25 -4 25 -10z m-1787 -867 c-5 -13 -3 -15 12
-9 11 4 17 4 13 1 -5 -5 95 -105 206 -205 37 -33 187 -177 304 -292 28 -28 52
-56 51 -62 -1 -20 -68 -68 -127 -92 -249 -100 -523 54 -573 322 -20 108 11
236 77 312 39 46 47 51 37 25z m509 -50 c15 -16 29 -40 33 -54 15 -61 -52
-139 -119 -139 -44 0 -96 60 -96 110 0 30 7 46 34 74 28 31 40 36 78 36 35 0
50 -6 70 -27z m-4124 -886 c17 -16 22 -31 22 -67 0 -50 -22 -81 -68 -95 -50
-15 -112 35 -112 90 0 87 94 130 158 72z m-686 -412 c4 -4 4 3 1 16 l-6 22 20
-20 c11 -11 34 -29 52 -39 17 -10 31 -22 31 -27 0 -4 20 -16 43 -26 24 -11 53
-31 64 -45 11 -14 32 -31 46 -37 15 -7 34 -23 42 -36 9 -12 23 -23 32 -23 26
0 138 -92 126 -104 -4 -3 3 -6 15 -6 11 0 24 -5 28 -12 5 -8 -13 -10 -72 -5
-130 10 -232 55 -322 141 -80 75 -150 205 -136 250 6 19 8 18 18 -11 6 -17 14
-35 18 -38z m4488 -345 c0 -5 -7 -10 -15 -10 -8 0 -15 5 -15 10 0 6 7 10 15
10 8 0 15 -4 15 -10z m-2550 -1102 c82 -84 150 -156 150 -161 0 -4 -15 -16
-32 -27 -44 -26 -147 -27 -203 -1 -45 20 -91 69 -112 118 -29 71 -4 223 39
223 4 0 75 -69 158 -152z m130 132 c11 -11 20 -27 20 -35 0 -20 -44 -65 -64
-65 -17 0 -56 46 -56 66 0 21 37 54 60 54 11 0 29 -9 40 -20z m1460 -220 c0
-13 -7 -20 -20 -20 -13 0 -20 7 -20 20 0 13 7 20 20 20 13 0 20 -7 20 -20z
m-560 -610 c0 -5 -2 -10 -4 -10 -3 0 -8 5 -11 10 -3 6 -1 10 4 10 6 0 11 -4
11 -10z m-212 -268 c2 -7 -3 -12 -12 -12 -9 0 -16 7 -16 16 0 17 22 14 28 -4z"/>
<path d="M4000 17230 c0 -5 5 -10 10 -10 6 0 10 5 10 10 0 6 -4 10 -10 10 -5
0 -10 -4 -10 -10z"/>
<path d="M3688 17203 c7 -3 16 -2 19 1 4 3 -2 6 -13 5 -11 0 -14 -3 -6 -6z"/>
<path d="M3840 17160 c0 -33 3 -40 20 -40 13 0 20 7 20 18 0 10 9 24 20 32 30
22 24 30 -20 30 l-40 0 0 -40z"/>
<path d="M15459 17163 c24 -9 73 -56 92 -88 23 -36 25 -16 4 26 -17 31 -69 69
-95 68 -12 0 -13 -2 -1 -6z"/>
<path d="M4880 17112 c0 -48 6 -53 21 -15 8 21 6 30 -6 42 -13 14 -15 11 -15
-27z"/>
<path d="M3620 17130 c0 -5 5 -10 10 -10 6 0 10 5 10 10 0 6 -4 10 -10 10 -5
0 -10 -4 -10 -10z"/>
<path d="M3582 17121 c-10 -6 -10 -10 3 -21 13 -11 15 -9 15 9 0 24 0 24 -18
12z"/>
<path d="M3520 17055 c0 -8 7 -15 16 -15 14 0 14 3 4 15 -7 8 -14 15 -16 15
-2 0 -4 -7 -4 -15z"/>
<path d="M3425 17050 c-3 -5 -1 -10 4 -10 6 0 11 5 11 10 0 6 -2 10 -4 10 -3
0 -8 -4 -11 -10z"/>
<path d="M5120 17030 c0 -5 18 -10 40 -10 38 0 40 -2 40 -29 0 -16 -5 -32 -10
-34 -6 -3 -5 -4 2 -3 8 1 14 21 16 44 l3 42 -45 0 c-25 0 -46 -4 -46 -10z"/>
<path d="M3310 16996 c0 -9 7 -16 16 -16 9 0 14 5 12 12 -6 18 -28 21 -28 4z"/>
<path d="M3260 16950 c0 -5 5 -10 10 -10 6 0 10 5 10 10 0 6 -4 10 -10 10 -5
0 -10 -4 -10 -10z"/>
<path d="M3310 16920 c0 -22 5 -40 10 -40 6 0 10 18 10 40 0 22 -4 40 -10 40
-5 0 -10 -18 -10 -40z"/>
<path d="M3200 16864 c0 -14 3 -14 15 -4 8 7 15 14 15 16 0 2 -7 4 -15 4 -8 0
-15 -7 -15 -16z"/>
<path d="M12253 16845 c-18 -8 -33 -16 -33 -18 0 -3 27 -32 61 -65 l60 -61 34
15 c19 8 52 14 73 14 64 0 114 -62 99 -123 -3 -12 -10 -39 -15 -60 -9 -35 -8
-39 11 -47 12 -5 18 -9 14 -9 -4 -1 14 -21 40 -45 26 -25 50 -43 54 -40 15 9
31 109 26 155 -11 94 -74 198 -147 244 -80 51 -210 69 -277 40z"/>
<path d="M3100 16760 c0 -22 5 -40 10 -40 6 0 10 18 10 40 0 22 -4 40 -10 40
-5 0 -10 -18 -10 -40z"/>
<path d="M12100 16785 c-10 -12 -16 -13 -28 -3 -13 11 -15 10 -9 -4 5 -14 1
-17 -16 -15 -14 1 -25 -6 -32 -20 -5 -13 -15 -23 -22 -23 -6 0 -22 -17 -34
-37 -13 -21 -27 -39 -31 -41 -4 -2 -8 -11 -8 -21 0 -9 -5 -22 -11 -28 -6 -6
-11 -48 -12 -94 -1 -72 2 -90 23 -129 14 -25 28 -47 31 -50 3 -3 12 -15 18
-28 7 -14 18 -21 26 -18 10 3 12 0 8 -11 -5 -13 -1 -15 23 -9 18 4 24 3 16 -2
-10 -7 -1 -15 32 -31 25 -11 53 -21 61 -21 9 0 32 -7 51 -15 20 -8 41 -12 47
-8 15 9 -22 33 -41 26 -10 -4 -14 -3 -10 2 4 4 -13 22 -38 40 -92 66 -154 197
-141 302 9 80 46 164 92 211 23 23 37 42 30 42 -7 0 -18 -7 -25 -15z"/>
<path d="M885 16663 c-42 -10 -39 -21 32 -95 14 -15 18 -16 27 -3 6 7 23 17
38 20 39 10 83 -34 73 -73 -4 -15 -13 -35 -22 -44 -13 -15 -11 -21 24 -67 21
-27 41 -50 45 -50 16 -2 38 61 38 109 0 67 -18 107 -68 152 -54 49 -120 67
-187 51z"/>
<path d="M742 16598 c-21 -21 -22 -21 -16 -3 7 19 7 19 -13 3 -11 -10 -25 -18
-31 -18 -6 0 -19 -12 -29 -27 -10 -16 -21 -30 -24 -33 -12 -9 -35 -84 -34
-110 4 -96 68 -179 151 -199 60 -15 120 -12 157 6 36 18 34 30 -4 31 -53 1
-119 50 -152 112 -25 47 -28 63 -24 110 5 58 16 91 43 128 9 12 12 22 7 22 -5
0 -19 -10 -31 -22z"/>
<path d="M10328 16313 c-51 -8 -52 -26 -2 -86 l46 -56 49 19 c44 18 53 18 83
6 20 -8 37 -25 45 -45 12 -28 11 -36 -13 -84 l-26 -54 55 -56 c30 -32 59 -57
64 -57 17 0 41 81 41 139 0 45 -7 72 -31 120 -58 117 -175 175 -311 154z"/>
<path d="M10175 16254 c-11 -9 -32 -20 -47 -26 -16 -5 -28 -14 -28 -20 0 -5
-4 -6 -10 -3 -5 3 -10 1 -10 -6 0 -7 -9 -22 -19 -33 -39 -43 -73 -125 -72
-174 1 -62 6 -83 40 -152 21 -44 105 -108 151 -116 19 -4 40 -9 45 -13 14 -9
104 -7 98 2 -2 4 -10 7 -18 7 -8 0 -16 4 -19 9 -3 4 7 6 22 4 17 -3 4 7 -34
26 -117 58 -173 147 -174 271 0 85 25 151 78 208 33 34 31 42 -3 16z"/>
<path d="M5660 16230 c0 -5 5 -10 10 -10 6 0 10 5 10 10 0 6 -4 10 -10 10 -5
0 -10 -4 -10 -10z"/>
<path d="M7818 16020 c-19 -12 -16 -18 45 -82 27 -28 31 -29 85 -24 47 6 63 3
89 -13 37 -23 57 -79 43 -117 -5 -13 -7 -24 -5 -24 2 0 0 -11 -5 -24 -7 -20
-4 -29 16 -49 13 -13 37 -41 53 -61 l30 -37 15 30 c23 44 21 148 -5 215 -24
64 -87 134 -150 167 -50 25 -182 37 -211 19z"/>
<path d="M7616 15915 c-3 -8 -11 -12 -19 -9 -17 6 -67 -33 -67 -53 0 -9 -3
-13 -7 -10 -3 4 -20 -17 -36 -46 -26 -44 -31 -63 -31 -124 -1 -40 -4 -73 -8
-73 -3 0 8 -26 25 -57 32 -60 99 -133 122 -133 7 0 18 -7 26 -16 8 -10 23 -14
40 -12 16 3 26 1 23 -4 -3 -4 -2 -8 3 -9 60 -6 65 -5 46 9 -17 13 -17 14 4 8
12 -4 24 -2 28 4 3 5 12 10 18 10 7 0 4 -5 -6 -11 -18 -11 -14 -29 6 -29 7 0
6 4 -3 11 -11 8 -6 9 20 5 26 -5 30 -4 15 3 -14 7 -16 10 -5 11 8 1 4 6 -10
11 -13 6 -36 7 -50 4 -16 -3 -20 -2 -12 3 9 6 1 16 -30 36 -60 38 -112 112
-134 192 -15 56 -16 75 -6 127 16 85 15 82 44 127 15 22 23 40 18 40 -4 0 -10
-7 -14 -15z"/>
<path d="M1656 15664 c-8 -21 -8 -21 9 -28 11 -4 15 1 15 19 0 28 -15 33 -24
9z"/>
<path d="M1570 15596 c0 -2 7 -9 15 -16 12 -10 15 -10 15 4 0 9 -7 16 -15 16
-8 0 -15 -2 -15 -4z"/>
<path d="M1513 15543 c-15 -5 -17 -43 -3 -43 6 0 10 4 10 9 0 5 7 11 17 13 14
2 14 5 2 14 -8 6 -20 9 -26 7z"/>
<path d="M6268 15513 c7 -3 16 -2 19 1 4 3 -2 6 -13 5 -11 0 -14 -3 -6 -6z"/>
<path d="M1486 15475 c-3 -8 -1 -15 4 -15 6 0 10 7 10 15 0 8 -2 15 -4 15 -2
0 -6 -7 -10 -15z"/>
<path d="M420 15091 c0 -5 14 -11 30 -13 20 -3 30 0 30 9 0 8 -12 13 -30 13
-16 0 -30 -4 -30 -9z"/>
<path d="M293 15029 c14 -8 22 -8 30 0 8 8 3 11 -18 11 -26 -1 -28 -2 -12 -11z"/>
<path d="M35 14970 c-3 -5 1 -10 9 -10 9 0 16 5 16 10 0 6 -4 10 -9 10 -6 0
-13 -4 -16 -10z"/>
<path d="M6640 14950 c0 -5 5 -10 10 -10 6 0 10 5 10 10 0 6 -4 10 -10 10 -5
0 -10 -4 -10 -10z"/>
<path d="M11265 14490 c-11 -5 -14 -9 -7 -9 7 -1 30 -19 50 -42 27 -29 50 -43
82 -50 24 -6 58 -17 75 -25 36 -17 73 -76 79 -123 2 -18 12 -41 22 -53 62 -69
81 -88 87 -88 13 0 7 97 -10 146 -33 100 -116 189 -207 223 -63 23 -144 33
-171 21z"/>
<path d="M7280 14270 c0 -28 2 -30 40 -30 l40 0 0 -40 0 -40 50 0 c49 0 50 0
38 23 -24 42 -41 57 -65 57 -12 0 -23 6 -23 13 0 11 -58 47 -75 47 -3 0 -5
-13 -5 -30z"/>
<path d="M8747 14194 c-21 -7 -44 -11 -52 -7 -9 3 -21 1 -28 -5 -7 -6 -27 -10
-44 -10 -17 1 -39 -6 -48 -16 -9 -9 -23 -16 -31 -16 -19 0 -88 -35 -105 -53
-44 -45 -89 -97 -89 -102 0 -4 -11 -21 -23 -38 -55 -74 -70 -187 -44 -322 15
-77 53 -158 89 -191 61 -55 164 -126 189 -131 16 -3 29 -10 29 -15 0 -5 10 -4
21 3 12 6 19 7 15 1 -12 -21 116 -30 159 -12 18 8 18 9 -5 8 -43 -2 -152 63
-218 128 -42 42 -73 85 -95 131 -31 66 -32 72 -32 203 l0 135 38 70 c42 79 83
128 147 174 54 39 71 39 108 1 17 -16 34 -30 39 -30 4 0 27 -23 51 -50 24 -28
52 -50 62 -50 11 0 42 9 70 20 28 11 65 20 82 20 41 0 101 -35 122 -72 23 -37
23 -111 0 -167 -22 -55 -13 -75 68 -141 35 -29 68 -58 74 -66 40 -50 72 173
40 277 -49 160 -151 268 -305 319 -73 24 -220 27 -284 4z m-82 -912 c-3 -3
-11 0 -18 7 -9 10 -8 11 6 5 10 -3 15 -9 12 -12z"/>
<path d="M10906 14183 c-5 -20 -9 -101 -7 -148 1 -24 3 -27 12 -15 8 11 9 6 5
-20 -5 -26 -4 -30 3 -15 8 16 10 16 10 4 1 -23 27 -70 34 -63 3 4 0 16 -8 28
-7 11 -19 42 -26 69 -6 26 -16 47 -21 47 -5 0 -7 4 -4 9 7 11 18 121 12 121
-3 0 -7 -8 -10 -17z"/>
<path d="M7360 13893 c0 -22 2 -25 10 -13 13 20 13 40 0 40 -5 0 -10 -12 -10
-27z"/>
<path d="M10966 13905 c-3 -9 -2 -13 3 -10 6 3 14 -3 20 -12 6 -10 10 -13 10
-8 0 6 -6 18 -13 28 -12 16 -14 16 -20 2z"/>
<path d="M11004 13858 c-4 -7 -4 -10 1 -6 4 4 15 2 24 -5 14 -11 14 -10 2 6
-16 20 -18 21 -27 5z"/>
<path d="M6560 12200 c0 -38 2 -40 30 -40 28 0 30 2 30 40 0 38 -2 40 -30 40
-28 0 -30 -2 -30 -40z"/>
<path d="M6138 11353 c7 -3 16 -2 19 1 4 3 -2 6 -13 5 -11 0 -14 -3 -6 -6z"/>
<path d="M7940 10831 c0 -5 12 -23 27 -40 20 -22 36 -31 59 -31 54 0 104 -27
120 -65 8 -19 14 -45 14 -58 0 -20 58 -97 74 -97 3 0 6 24 6 53 0 132 -114
246 -247 247 -29 0 -53 -4 -53 -9z"/>
<path d="M18272 10704 c10 -10 20 -15 24 -12 3 4 -5 12 -18 18 -22 12 -22 12
-6 -6z"/>
<path d="M7701 10701 c-7 -5 -11 -13 -7 -19 3 -6 -2 -18 -11 -28 -10 -9 -25
-35 -34 -58 -14 -34 -14 -47 -3 -89 13 -52 30 -78 46 -74 6 1 13 -5 15 -13 4
-13 3 -13 -6 0 -7 9 -11 10 -11 3 0 -21 23 -27 36 -8 11 15 10 23 -4 49 -17
33 -28 211 -12 201 4 -3 6 5 2 17 -3 14 -2 19 6 14 7 -4 12 -2 12 3 0 13 -10
14 -29 2z"/>
<path d="M5600 10685 c0 -13 4 -14 20 -5 11 6 20 13 20 15 0 3 -9 5 -20 5 -11
0 -20 -7 -20 -15z"/>
<path d="M18293 10683 c-16 -6 -17 -26 -1 -21 15 5 60 -40 52 -53 -3 -5 6 -23
20 -40 14 -17 26 -27 26 -23 0 4 7 -1 15 -12 18 -24 19 -6 1 37 -15 35 -82
120 -94 118 -4 0 -13 -3 -19 -6z"/>
<path d="M5585 10650 c3 -5 8 -10 11 -10 2 0 4 5 4 10 0 6 -5 10 -11 10 -5 0
-7 -4 -4 -10z"/>
<path d="M7734 10406 c-7 -17 5 -29 58 -61 25 -14 27 -14 22 0 -4 9 -9 13 -12
10 -7 -7 -43 26 -37 35 3 4 -2 13 -10 20 -12 10 -16 9 -21 -4z"/>
<path d="M5153 9558 c-18 -6 -33 -15 -33 -19 0 -5 -8 -9 -17 -9 -13 0 -14 -3
-6 -8 9 -5 1 -12 -23 -21 -19 -7 -33 -15 -30 -18 2 -3 -6 -15 -20 -28 -13 -12
-24 -32 -24 -44 0 -12 -7 -30 -16 -38 -13 -13 -15 -30 -9 -97 6 -76 39 -176
57 -176 5 0 8 -6 8 -13 0 -27 113 -111 142 -105 7 1 29 -3 48 -10 37 -13 114
-9 165 7 29 9 29 9 5 11 -19 2 -21 3 -7 7 13 3 -2 15 -52 40 -144 70 -199 219
-132 351 21 41 78 102 96 102 5 0 28 -17 50 -38 70 -66 69 -65 107 -42 46 28
82 26 107 -6 26 -33 26 -72 1 -104 -11 -14 -20 -30 -20 -35 0 -6 23 -32 50
-58 60 -57 73 -53 89 24 19 87 -12 175 -85 238 -50 44 -100 62 -174 63 -36 1
-70 5 -77 10 -15 12 -71 15 -105 5 -18 -5 -31 -2 -42 8 -8 8 -16 15 -18 14 -2
-1 -18 -6 -35 -11z"/>
<path d="M4560 9344 c0 -8 5 -12 10 -9 6 3 10 10 10 16 0 5 -4 9 -10 9 -5 0
-10 -7 -10 -16z"/>
<path d="M7877 8982 c18 -16 30 -32 27 -34 -3 -3 2 -8 11 -12 30 -11 -16 49
-50 66 -11 5 -6 -3 12 -20z"/>
<path d="M3738 8393 c7 -3 16 -2 19 1 4 3 -2 6 -13 5 -11 0 -14 -3 -6 -6z"/>
<path d="M3681 8334 c0 -11 3 -14 6 -6 3 7 2 16 -1 19 -3 4 -6 -2 -5 -13z"/>
<path d="M17894 7985 c10 -7 15 -18 11 -24 -3 -6 -1 -11 4 -11 12 0 66 -58 65
-68 -1 -15 21 -27 54 -30 147 -11 208 -83 198 -234 -5 -64 -3 -80 9 -84 8 -4
15 -11 15 -16 0 -6 11 -19 25 -30 14 -11 25 -25 25 -33 0 -7 7 -18 15 -25 8
-7 16 -22 16 -34 1 -17 2 -17 6 -3 5 20 23 23 24 5 0 -7 7 1 14 17 55 123 3
326 -115 445 -91 91 -204 140 -325 140 -54 -1 -58 -2 -41 -15z"/>
<path d="M17460 7696 c0 -10 -5 -14 -12 -10 -7 4 -8 3 -4 -5 4 -6 1 -22 -6
-34 -52 -82 -50 -272 4 -333 10 -11 18 -30 18 -42 0 -11 8 -27 18 -34 10 -7
26 -24 36 -38 18 -24 18 -24 13 -2 -3 12 -1 20 4 16 5 -3 9 -13 9 -23 0 -10 9
-26 19 -35 18 -17 19 -17 24 1 4 17 5 17 6 0 1 -12 5 -16 14 -11 7 5 6 0 -3
-11 -14 -17 -13 -18 7 -13 12 3 23 2 25 -4 2 -5 10 -10 18 -12 8 -2 32 -10 52
-20 21 -9 40 -16 44 -16 14 0 -37 38 -69 51 -17 7 -54 36 -82 64 -27 27 -53
49 -57 48 -5 -2 -7 0 -6 5 1 4 -15 42 -36 85 -34 70 -39 89 -43 176 -4 62 -1
117 7 150 7 29 9 55 6 58 -3 4 -6 -1 -6 -11z"/>
<path d="M4841 7608 l-44 -10 44 -44 c24 -24 52 -47 64 -50 11 -3 27 -15 36
-26 13 -16 29 -20 101 -21 70 -2 92 -6 114 -23 49 -36 64 -66 73 -144 l8 -75
64 -62 c57 -56 65 -61 77 -46 16 22 15 84 -3 162 -57 240 -296 392 -534 339z"/>
<path d="M4650 7556 c-14 -7 -43 -22 -65 -32 -22 -10 -46 -25 -53 -31 -7 -7
-18 -13 -23 -13 -5 0 -21 -18 -35 -40 -14 -22 -34 -42 -43 -45 -10 -3 -18 -11
-19 -18 0 -6 -13 -41 -28 -77 -38 -91 -43 -186 -15 -279 12 -39 26 -71 31 -71
5 0 12 -10 16 -22 11 -38 117 -135 175 -162 42 -19 58 -22 74 -13 18 9 18 8 7
-6 -11 -13 -10 -15 9 -10 15 4 20 3 15 -5 -4 -7 -2 -12 3 -12 6 0 11 5 11 11
0 8 4 8 14 0 10 -8 16 -9 21 -1 3 5 0 10 -7 10 -7 0 -30 11 -49 25 -20 13 -40
21 -44 17 -3 -4 -5 -2 -4 3 1 6 -18 31 -43 56 -130 132 -164 347 -83 517 25
53 54 93 104 143 70 70 75 79 31 55z"/>
<path d="M14653 6020 c9 -6 17 -15 17 -21 0 -18 34 -47 63 -55 21 -5 25 -9 15
-15 -10 -7 -10 -9 3 -9 17 0 71 -55 67 -67 -5 -13 42 -113 52 -113 6 0 10 -7
10 -15 0 -8 6 -15 13 -15 7 0 18 -12 24 -27 9 -24 10 -19 8 37 -4 112 -78 227
-178 274 -56 26 -127 45 -94 26z"/>
<path d="M14211 5604 c0 -12 7 -28 17 -35 15 -12 16 -12 6 1 -7 8 -14 24 -17
35 -4 19 -5 19 -6 -1z"/>
<path d="M14261 5473 c7 -12 15 -20 18 -17 3 2 -3 12 -13 22 -17 16 -18 16 -5
-5z"/>
<path d="M2030 5320 c-8 -5 -10 -10 -5 -10 6 0 17 5 25 10 8 5 11 10 5 10 -5
0 -17 -5 -25 -10z"/>
<path d="M17943 5316 c-35 -16 -36 -30 -1 -70 10 -11 35 -41 56 -65 l38 -44
48 22 c74 32 121 28 162 -13 46 -46 47 -103 4 -167 -29 -43 -39 -79 -21 -79 5
0 32 -32 61 -70 29 -39 56 -67 61 -64 5 3 9 -2 9 -11 0 -29 24 -10 49 40 86
173 -11 417 -199 503 -69 32 -215 41 -267 18z"/>
<path d="M778 5273 c7 -3 16 -2 19 1 4 3 -2 6 -13 5 -11 0 -14 -3 -6 -6z"/>
<path d="M17774 5262 c-5 -17 -9 -20 -15 -11 -5 9 -15 6 -36 -14 -15 -14 -49
-44 -75 -68 -27 -23 -48 -49 -48 -57 0 -8 -11 -27 -24 -43 -13 -15 -27 -46
-31 -69 -4 -22 -11 -42 -16 -46 -13 -7 -11 -84 2 -141 15 -60 46 -127 70 -149
11 -10 19 -22 19 -28 0 -17 57 -64 119 -99 69 -39 199 -59 267 -42 25 6 41 15
37 19 -4 5 8 5 27 2 26 -5 31 -4 20 3 -12 9 -10 11 13 11 15 0 27 4 27 9 0 5
-35 9 -79 10 -215 3 -367 140 -396 357 -8 63 16 172 52 234 15 25 48 67 75 93
27 26 40 43 29 38 -14 -8 -21 -8 -25 2 -3 7 -8 2 -12 -11z"/>
<path d="M721 5218 c-1 -10 -6 -18 -12 -18 -5 0 -7 -5 -3 -11 9 -15 28 16 20
34 -2 7 -5 4 -5 -5z"/>
<path d="M640 5131 c0 -6 -8 -11 -17 -12 -10 0 -13 -3 -6 -5 18 -8 49 11 34
20 -6 4 -11 2 -11 -3z"/>
<path d="M561 5054 c0 -11 3 -14 6 -6 3 7 2 16 -1 19 -3 4 -6 -2 -5 -13z"/>
<path d="M490 5033 c0 -17 19 -35 29 -29 18 12 12 36 -9 36 -11 0 -20 -3 -20
-7z"/>
<path d="M12970 4110 c13 -9 13 -10 0 -10 -8 -1 -3 -7 12 -16 15 -8 32 -23 38
-34 6 -11 18 -20 26 -20 19 0 117 -97 110 -108 -7 -11 22 -93 40 -113 8 -8 14
-24 15 -35 1 -15 3 -14 9 6 8 25 9 24 13 -20 0 -3 11 -15 24 -27 l23 -22 0 45
c0 52 -31 150 -64 202 -49 77 -172 162 -236 162 -20 0 -22 -2 -10 -10z"/>
<path d="M15772 3951 c-36 -23 18 -71 81 -71 63 0 82 -23 73 -90 -5 -39 -3
-54 8 -66 9 -8 23 -25 31 -37 16 -22 16 -22 31 -2 25 33 15 133 -20 185 -42
64 -159 110 -204 81z"/>
<path d="M15572 3840 c-26 -25 -46 -70 -56 -125 -5 -29 -4 -36 4 -25 7 11 9 8
5 -15 -5 -24 1 -37 29 -67 20 -22 44 -38 57 -38 18 0 19 -2 9 -15 -15 -18 1
-20 18 -3 6 6 15 8 19 4 4 -4 1 -11 -7 -16 -13 -8 -12 -10 3 -10 15 0 22 11
18 33 -1 5 3 6 8 2 6 -3 8 -12 5 -20 -4 -10 0 -12 16 -8 19 5 17 10 -28 52
-63 59 -91 135 -75 205 13 57 4 73 -25 46z m-35 -102 c-3 -8 -6 -5 -6 6 -1 11
2 17 5 13 3 -3 4 -12 1 -19z"/>
<path d="M17348 2870 c-2 -7 -15 -14 -28 -15 -14 -1 -25 -3 -25 -4 0 -3 -58
-11 -93 -14 -27 -2 -144 -108 -175 -157 -11 -19 -25 -38 -30 -42 -6 -3 -12
-21 -14 -40 -2 -18 -8 -34 -13 -36 -14 -5 -13 -143 2 -200 6 -26 18 -58 26
-70 9 -13 23 -37 32 -54 9 -17 19 -30 23 -29 11 2 35 -23 34 -34 -1 -5 8 -10
19 -9 12 0 20 -4 18 -10 -2 -6 10 -17 28 -25 18 -8 41 -20 50 -28 10 -9 25
-12 40 -8 19 5 20 4 8 -5 -12 -10 -11 -11 7 -7 12 3 31 -2 42 -10 18 -12 24
-12 43 1 12 9 27 16 33 16 5 0 3 -5 -5 -11 -16 -11 10 -9 95 9 50 11 131 57
127 72 -1 6 1 9 6 6 4 -3 21 4 38 15 16 10 23 19 16 19 -7 0 -10 5 -7 11 4 6
13 8 21 5 9 -4 14 2 14 15 0 20 -8 19 -40 -6 -27 -21 -104 -37 -173 -37 -167
2 -299 126 -323 304 -10 73 25 173 83 238 58 65 86 77 113 50 11 -11 20 -23
20 -26 0 -3 6 -11 13 -18 6 -7 29 -32 50 -55 l38 -42 25 30 c36 43 91 58 133
37 65 -34 65 -112 0 -171 l-40 -36 63 -74 c34 -41 66 -75 70 -75 3 0 10 -10
13 -21 7 -21 8 -21 30 7 13 16 31 57 41 91 34 124 -4 253 -98 338 -62 55 -107
76 -182 82 -33 3 -66 10 -73 15 -7 5 -14 5 -17 -1 -8 -12 -58 -4 -67 11 -4 7
-8 6 -11 -2z m282 -680 c-8 -5 -19 -10 -25 -10 -5 0 -3 5 5 10 8 5 20 10 25
10 6 0 3 -5 -5 -10z"/>
<path d="M17690 2249 c0 -5 5 -7 10 -4 6 3 10 8 10 11 0 2 -4 4 -10 4 -5 0
-10 -5 -10 -11z"/>
<path d="M1348 1934 c23 -14 42 -29 42 -34 0 -5 6 -7 14 -4 8 3 16 -3 19 -16
3 -12 10 -19 16 -15 6 3 11 -1 11 -9 0 -9 8 -16 18 -16 14 0 15 2 2 10 -11 7
-12 10 -2 10 8 0 16 -9 19 -20 3 -10 14 -22 24 -25 10 -4 19 -11 19 -16 0 -5
5 -9 10 -9 13 0 43 -29 58 -55 8 -14 11 -15 12 -5 0 10 5 7 16 -8 8 -12 12
-28 8 -35 -5 -9 -4 -9 5 -1 10 9 9 18 -4 43 -9 17 -20 29 -25 26 -6 -3 -7 0
-5 8 7 17 -55 89 -71 83 -7 -3 -11 0 -9 7 6 17 -65 64 -135 87 -80 27 -94 25
-42 -6z"/>
<path d="M10260 1823 c0 -5 16 -19 35 -33 19 -14 35 -30 35 -36 0 -6 9 -21 20
-34 29 -34 25 -3 -5 43 -24 34 -85 78 -85 60z"/>
<path d="M741 1684 c0 -11 3 -14 6 -6 3 7 2 16 -1 19 -3 4 -6 -2 -5 -13z"/>
<path d="M720 1635 c0 -9 -7 -26 -15 -39 -8 -12 -18 -49 -21 -82 -3 -32 -7
-60 -9 -62 -2 -2 4 -29 11 -60 19 -73 53 -142 76 -151 12 -4 15 -10 8 -21 -8
-12 -12 -13 -19 -2 -7 11 -9 11 -14 0 -4 -11 4 -14 32 -14 l38 0 -16 27 c-9
15 -18 26 -20 23 -7 -7 -41 28 -41 44 0 9 7 6 20 -9 l20 -24 -15 30 c-25 51
-37 136 -33 229 3 50 8 99 13 109 4 10 3 17 -4 17 -6 0 -11 -7 -11 -15z"/>
<path d="M16088 1520 c-37 -14 -48 -15 -48 -5 0 8 -7 11 -19 8 -13 -3 -18 -11
-14 -21 4 -10 3 -14 -2 -10 -4 4 -27 -4 -51 -18 -24 -14 -48 -23 -54 -19 -5 3
-14 -4 -19 -17 -10 -26 -46 -59 -55 -51 -3 4 -6 1 -6 -6 0 -6 -9 -22 -20 -34
-12 -12 -23 -32 -26 -44 -4 -13 -13 -23 -21 -23 -8 0 -12 -4 -9 -9 4 -5 1 -22
-5 -38 -7 -15 -11 -39 -10 -52 2 -13 -1 -21 -6 -18 -4 3 -8 -14 -7 -36 1 -23
-2 -51 -6 -62 -6 -17 -1 -39 28 -125 8 -24 9 -29 11 -47 1 -13 3 -15 9 -5 6 8
13 1 22 -23 7 -19 17 -32 22 -29 4 3 12 -6 18 -20 5 -14 18 -30 30 -36 11 -6
18 -15 15 -21 -4 -5 7 -14 24 -20 17 -6 31 -15 31 -20 0 -5 9 -9 20 -9 11 0
20 -4 20 -9 0 -5 24 -19 53 -32 41 -18 70 -23 139 -22 52 0 93 4 101 12 8 6
21 9 29 6 10 -4 18 2 22 17 5 19 8 20 15 8 9 -12 14 -11 34 8 13 12 27 22 33
22 20 1 86 69 78 81 -4 8 -3 10 4 5 7 -4 12 -2 12 3 0 6 9 11 20 11 11 0 20 6
20 14 0 8 6 17 13 19 7 3 5 6 -5 6 -10 1 -18 -3 -18 -9 0 -5 -7 -10 -15 -10
-8 0 -15 -3 -15 -8 0 -4 -28 -18 -62 -32 -51 -20 -80 -25 -153 -24 -77 0 -98
4 -148 28 -69 33 -146 107 -176 169 -67 139 -45 304 56 413 21 23 50 48 65 57
l27 17 77 -85 c42 -47 81 -85 87 -85 5 0 27 16 48 35 32 29 47 35 83 35 54 0
91 -27 100 -74 9 -47 -8 -85 -56 -127 l-42 -37 56 -68 c77 -94 115 -134 128
-134 6 0 23 26 37 58 20 42 28 78 31 140 8 151 -34 239 -157 332 -53 40 -118
59 -221 66 -52 3 -96 10 -98 15 -5 13 -20 11 -74 -11z m295 -787 c-7 -2 -19
-2 -25 0 -7 3 -2 5 12 5 14 0 19 -2 13 -5z"/>
<path d="M14164 1265 c-9 -23 36 -56 59 -43 13 7 25 5 43 -7 27 -18 29 -24 12
-60 -10 -23 -9 -29 14 -52 34 -33 48 -23 48 35 0 56 -26 104 -69 127 -39 20
-100 20 -107 0z"/>
<path d="M14028 1176 c-2 -13 -12 -22 -25 -24 -24 -3 -26 -9 -24 -52 3 -44 21
-75 51 -89 17 -7 37 -20 45 -28 8 -8 15 -10 15 -4 0 6 6 11 14 11 8 0 18 5 22
11 4 8 0 9 -15 4 -14 -4 -21 -2 -22 7 -1 7 -2 18 -4 23 -1 6 -3 17 -4 25 -1
13 -2 13 -11 0 -7 -11 -10 2 -11 45 -1 33 -1 67 0 76 2 24 -28 19 -31 -5z"/>
<path d="M811 1167 c16 -31 18 -32 16 -8 -1 11 -7 23 -14 26 -11 4 -11 0 -2
-18z"/>
<path d="M14001 1174 c0 -11 3 -14 6 -6 3 7 2 16 -1 19 -3 4 -6 -2 -5 -13z"/>
<path d="M11915 1030 c-5 -8 -1 -18 8 -25 10 -7 17 -16 17 -21 1 -24 47 -50
95 -53 62 -3 92 -22 112 -69 12 -28 13 -47 6 -78 -9 -38 0 -84 17 -84 3 0 21
-20 40 -45 l34 -45 14 32 c20 48 12 162 -16 219 -31 63 -86 117 -152 147 -63
30 -163 42 -175 22z"/>
<path d="M11634 832 c-26 -16 -54 -97 -54 -153 0 -70 10 -120 21 -113 5 3 9
-2 9 -10 0 -9 11 -26 25 -38 14 -12 25 -27 25 -34 0 -16 28 -26 34 -11 2 7 5
5 5 -4 1 -18 32 -49 48 -49 27 0 19 32 -17 68 -22 22 -42 38 -45 36 -3 -2 -3
-1 -1 2 2 3 -7 29 -21 57 -30 58 -41 161 -25 220 6 20 10 37 9 37 -1 0 -7 -4
-13 -8z m112 -389 c-7 -7 -26 7 -26 19 0 6 6 6 15 -2 9 -7 13 -15 11 -17z"/>
<path d="M11770 431 c0 -8 41 -23 47 -17 2 1 -8 8 -22 14 -14 6 -25 8 -25 3z"/>
</g>
</svg>
